<?xml version="1.0" standalone="no"?>
<!DOCTYPE svg PUBLIC "-//W3C//DTD SVG 20010904//EN"
 "http://www.w3.org/TR/2001/REC-SVG-20010904/DTD/svg10.dtd">
<svg version="1.0" xmlns="http://www.w3.org/2000/svg"
 width="1116.000000pt" height="1280.000000pt" viewBox="0 0 1116.000000 1280.000000"
 preserveAspectRatio="xMidYMid meet">
<g transform="translate(0.000000,1280.000000) scale(0.100000,-0.100000)"
fill="#e6e2d7" stroke="none">
<path d="M6170 12794 c-329 -19 -678 -62 -918 -113 -509 -109 -675 -148 -909
-217 -756 -221 -1357 -532 -1888 -975 -225 -188 -474 -540 -646 -913 -169
-367 -329 -927 -359 -1256 -26 -295 -60 -417 -149 -540 -48 -66 -65 -165 -58
-329 6 -132 12 -177 78 -551 36 -204 35 -288 -4 -413 -34 -106 -86 -190 -211
-337 -58 -69 -320 -406 -583 -750 -262 -344 -482 -631 -489 -638 -19 -19 -37
-121 -30 -175 21 -184 167 -296 668 -512 103 -45 160 -74 163 -86 12 -37 6
-176 -10 -244 -8 -38 -38 -137 -64 -220 -100 -310 -89 -415 54 -496 l52 -29 8
-102 c8 -123 39 -235 86 -315 19 -32 81 -105 138 -161 l103 -104 -5 -231 c-4
-178 -11 -270 -31 -397 -30 -192 -31 -210 -12 -270 8 -25 24 -81 36 -125 60
-222 179 -352 380 -413 154 -47 264 -55 653 -48 1048 18 1157 18 1282 7 149
-14 257 -40 327 -78 125 -68 276 -292 650 -961 255 -457 294 -526 376 -662 41
-69 77 -127 78 -129 2 -2 10 2 18 8 13 11 8 23 -33 89 -64 103 -170 289 -398
697 -415 743 -541 924 -697 1000 -183 90 -408 99 -1536 65 -359 -11 -381 -11
-511 9 -360 54 -482 154 -565 466 -38 141 -39 161 -9 356 29 184 44 496 31
600 -7 51 -11 57 -68 104 -117 96 -202 222 -233 341 -13 51 -36 244 -30 252 3
3 717 -38 731 -43 6 -1 16 -28 24 -59 15 -63 19 -69 40 -56 12 8 12 16 -2 59
l-16 51 24 0 c17 0 24 6 24 20 0 16 -7 20 -30 20 -28 0 -31 4 -47 61 -15 56
-34 81 -50 65 -3 -3 1 -30 10 -61 l16 -55 -43 0 c-110 0 -707 41 -731 50 -49
19 -87 52 -106 94 -34 74 -23 155 52 384 60 186 79 276 78 372 -1 47 -4 95 -8
108 -5 19 -43 40 -206 111 -422 185 -542 265 -605 403 -21 46 -26 123 -11 175
10 35 912 1225 1042 1375 121 139 175 214 219 303 88 178 94 285 32 630 -54
306 -62 366 -62 499 0 126 18 211 54 259 92 124 121 228 151 532 30 301 140
724 282 1085 151 384 358 718 607 980 133 140 505 413 771 566 446 255 986
460 1595 603 633 149 916 195 1370 222 573 34 1416 -53 1945 -203 315 -88 650
-220 975 -383 406 -204 661 -387 967 -697 287 -290 448 -520 661 -948 228
-456 347 -756 397 -1003 52 -259 58 -353 59 -892 1 -473 0 -508 -22 -642 -43
-275 -111 -528 -207 -772 -87 -224 -104 -258 -745 -1556 -384 -778 -442 -915
-484 -1135 -67 -353 -138 -771 -147 -868 -15 -144 -15 -526 0 -687 26 -282 75
-585 147 -910 20 -88 39 -163 43 -167 3 -4 12 -4 19 1 9 5 4 42 -22 162 -133
594 -183 1075 -156 1489 9 152 26 265 91 629 50 279 90 477 109 532 48 145
133 325 605 1284 249 506 468 956 488 1000 179 402 284 796 317 1185 14 168 3
879 -16 1070 -36 344 -98 557 -277 950 -288 633 -446 889 -758 1230 -243 266
-541 499 -869 682 -176 98 -222 121 -425 211 -635 280 -1124 398 -1910 462
-190 15 -603 26 -725 19z"/>
<path d="M5812 12359 c-92 -12 -158 -36 -196 -73 -21 -20 -39 -29 -47 -24 -8
4 -68 21 -133 39 -112 29 -123 30 -185 19 -163 -30 -252 -62 -463 -167 -140
-69 -204 -94 -385 -149 -444 -134 -406 -120 -426 -156 -9 -18 -21 -46 -25 -62
-7 -26 -15 -30 -102 -52 -141 -36 -249 -91 -324 -166 -34 -35 -72 -84 -84
-109 -21 -44 -28 -49 -105 -79 -248 -99 -438 -228 -629 -429 -90 -95 -271
-321 -284 -355 -3 -9 8 -41 26 -72 17 -31 29 -58 27 -61 -3 -2 -40 0 -84 5
l-78 10 -39 -37 c-50 -48 -154 -181 -198 -256 -66 -112 -88 -169 -196 -526
l-29 -97 24 -38 c12 -22 23 -41 23 -44 0 -3 -20 -16 -44 -30 -53 -28 -58 -45
-58 -195 0 -189 41 -303 201 -569 39 -65 82 -139 95 -165 68 -134 327 -295
571 -355 6 -2 -11 -6 -37 -10 -53 -8 -78 -33 -78 -77 0 -33 13 -44 70 -59 116
-29 160 -57 160 -101 0 -20 11 -37 41 -63 64 -54 95 -61 171 -38 212 66 458
99 616 83 86 -9 110 -7 210 13 l112 23 20 -44 c26 -59 53 -91 108 -131 75 -53
156 -73 317 -79 l140 -5 41 -47 c86 -97 207 -135 410 -129 l121 3 74 -75 c86
-88 162 -140 256 -178 62 -24 80 -26 203 -27 127 0 141 2 237 33 57 19 151 58
210 87 60 29 111 51 116 48 4 -2 7 -15 7 -27 0 -43 50 -200 90 -281 75 -151
190 -267 350 -349 83 -44 271 -106 359 -121 73 -12 97 -44 105 -143 18 -206
111 -403 326 -692 104 -139 171 -220 500 -600 283 -328 442 -524 527 -649 1
-2 9 2 17 8 13 11 8 23 -36 83 -94 129 -228 291 -501 607 -437 504 -573 683
-687 904 -67 129 -97 219 -105 315 -11 123 -12 127 -75 193 -68 72 -100 129
-100 180 0 32 19 68 76 147 14 18 14 25 5 35 -10 9 -18 5 -37 -18 -47 -56 -84
-129 -84 -165 0 -36 39 -132 59 -144 60 -37 -104 -2 -244 53 -236 92 -396 260
-473 501 -29 90 -47 189 -36 199 5 5 91 69 190 143 l181 136 12 -53 c26 -117
97 -186 298 -288 l128 -65 18 -64 c34 -117 79 -182 228 -329 123 -122 149
-143 243 -194 187 -100 353 -164 536 -206 149 -35 428 -36 586 -4 l31 7 12
-139 c35 -396 101 -789 177 -1048 68 -232 168 -465 199 -465 22 0 20 7 -29
111 -152 326 -255 789 -306 1379 -6 69 -13 135 -15 146 -4 19 18 33 198 123
334 166 544 310 719 489 114 118 164 181 238 304 52 86 128 264 156 361 13 47
23 63 55 87 55 39 125 54 223 46 l81 -6 145 169 c79 94 152 186 163 207 27 53
64 205 78 324 16 145 7 582 -16 710 -33 185 -93 338 -185 476 -59 87 -212 245
-305 315 l-60 45 -40 119 c-59 176 -95 235 -200 340 -83 83 -141 123 -292 206
-17 9 -47 46 -72 90 -84 142 -211 243 -398 315 -91 35 -93 37 -93 69 0 140
-173 253 -472 309 -73 14 -100 25 -175 72 -215 136 -446 226 -662 258 -36 5
-57 19 -113 71 -83 76 -147 115 -243 145 -61 20 -102 23 -320 30 -233 6 -255
9 -330 33 -44 15 -120 49 -169 75 l-88 49 -117 -20 c-64 -11 -117 -24 -119
-29 -6 -14 -144 -9 -207 7 -33 8 -91 31 -128 50 -37 19 -73 34 -80 34 -7 -1
-41 -5 -75 -10z m45 -35 c-3 -3 -12 -4 -19 -1 -8 3 -5 6 6 6 11 1 17 -2 13 -5z
m-220 -76 c-2 -7 0 -22 6 -33 9 -19 8 -19 -8 -3 -10 9 -15 23 -12 32 7 19 21
22 14 4z m723 8 c0 -3 -4 -8 -10 -11 -5 -3 -10 -1 -10 4 0 6 5 11 10 11 6 0
10 -2 10 -4z m-789 -43 c13 -17 13 -17 -6 -3 -11 8 -22 16 -24 17 -2 2 0 3 6
3 6 0 17 -8 24 -17z m739 7 c0 -5 -2 -10 -4 -10 -3 0 -8 5 -11 10 -3 6 -1 10
4 10 6 0 11 -4 11 -10z m-1350 -30 c-8 -5 -19 -10 -25 -10 -5 0 -3 5 5 10 8 5
20 10 25 10 6 0 3 -5 -5 -10z m762 -125 c6 -11 6 -15 1 -10 -5 6 -38 42 -73
80 l-64 70 63 -60 c34 -33 67 -69 73 -80z m1596 58 c-16 -2 -40 -2 -55 0 -16
2 -3 4 27 4 30 0 43 -2 28 -4z m65 -10 c-7 -2 -19 -2 -25 0 -7 3 -2 5 12 5 14
0 19 -2 13 -5z m307 -173 c0 -4 -7 -11 -16 -14 -13 -5 -14 -4 -6 7 7 8 8 18 4
22 -4 5 -1 5 6 1 6 -4 12 -11 12 -16z m37 -46 c-3 -3 -12 -4 -19 -1 -8 3 -5 6
6 6 11 1 17 -2 13 -5z m-1466 -31 c-12 -20 -14 -14 -5 12 4 9 9 14 11 11 3 -2
0 -13 -6 -23z m-1194 -29 c-3 -3 -12 -4 -19 -1 -8 3 -5 6 6 6 11 1 17 -2 13
-5z m543 -9 c-7 -8 -16 -15 -20 -15 -3 0 -7 7 -7 15 0 8 9 15 20 15 16 0 17
-3 7 -15z m620 -25 c-11 -22 -23 -40 -25 -40 -3 0 4 18 15 40 11 22 23 40 25
40 3 0 -4 -18 -15 -40z m1325 17 c-16 -12 -59 -46 -95 -76 -37 -32 -52 -41
-35 -22 31 34 142 121 153 121 4 0 -6 -11 -23 -23z m-2598 7 c-3 -3 -12 -4
-19 -1 -8 3 -5 6 6 6 11 1 17 -2 13 -5z m1898 -12 c-3 -3 -11 0 -18 7 -9 10
-8 11 6 5 10 -3 15 -9 12 -12z m-1967 1 c-10 -2 -26 -2 -35 0 -10 3 -2 5 17 5
19 0 27 -2 18 -5z m2042 -39 c0 -2 -9 0 -20 6 -11 6 -20 13 -20 16 0 2 9 0 20
-6 11 -6 20 -13 20 -16z m-1340 -8 c0 -2 -8 -10 -17 -17 -16 -13 -17 -12 -4 4
13 16 21 21 21 13z m1381 -23 c13 -16 12 -17 -3 -4 -10 7 -18 15 -18 17 0 8 8
3 21 -13z m-781 -13 c-6 -11 -13 -20 -16 -20 -2 0 0 9 6 20 6 11 13 20 16 20
2 0 0 -9 -6 -20z m1195 0 c-10 -11 -23 -20 -29 -20 -6 0 0 9 14 20 32 25 38
25 15 0z m-285 -46 c0 -3 -13 4 -30 16 -16 12 -30 24 -30 26 0 3 14 -4 30 -16
17 -12 30 -24 30 -26z m-2810 22 c0 -2 -7 -7 -16 -10 -8 -3 -12 -2 -9 4 6 10
25 14 25 6z m-40 -20 c0 -2 -12 -11 -27 -20 l-28 -17 24 20 c23 21 31 25 31
17z m2927 -22 c-3 -3 -12 -4 -19 -1 -8 3 -5 6 6 6 11 1 17 -2 13 -5z m681 -11
c-16 -2 -40 -2 -55 0 -16 2 -3 4 27 4 30 0 43 -2 28 -4z m-3668 -6 c0 -2 -10
-12 -22 -23 l-23 -19 19 23 c18 21 26 27 26 19z m3114 -11 c-3 -8 -12 -12 -21
-9 -12 5 -12 7 -1 14 20 13 28 11 22 -5z m-1797 -38 c-3 -7 -5 -2 -5 12 0 14
2 19 5 13 2 -7 2 -19 0 -25z m2438 22 c-3 -5 -11 -10 -16 -10 -6 0 -7 5 -4 10
3 6 11 10 16 10 6 0 7 -4 4 -10z m245 0 c18 -12 2 -12 -25 0 -13 6 -15 9 -5 9
8 0 22 -4 30 -9z m-310 -10 c0 -5 -2 -10 -4 -10 -3 0 -8 5 -11 10 -3 6 -1 10
4 10 6 0 11 -4 11 -10z m-4293 -43 c-21 -17 -52 -48 -69 -67 -29 -34 -29 -34
-9 -3 21 31 98 103 110 103 3 0 -11 -15 -32 -33z m4247 -38 c-10 -11 -28 -25
-39 -31 -11 -6 -4 4 15 20 41 36 51 41 24 11z m1016 -29 c8 -5 11 -10 5 -10
-5 0 -17 5 -25 10 -8 5 -10 10 -5 10 6 0 17 -5 25 -10z m70 -30 c22 -11 40
-23 40 -25 0 -5 -79 32 -89 41 -11 10 14 2 49 -16z m-449 -7 c13 -16 12 -17
-3 -4 -17 13 -22 21 -14 21 2 0 10 -8 17 -17z m45 -34 c19 -22 19 -22 -3 -8
-13 8 -23 17 -23 21 0 12 6 9 26 -13z m512 -39 c12 -14 40 -61 30 -50 -48 52
-87 100 -68 85 14 -11 30 -27 38 -35z m-1793 -10 c3 -5 2 -10 -4 -10 -5 0 -13
5 -16 10 -3 6 -2 10 4 10 5 0 13 -4 16 -10z m-332 -54 c-10 -13 -20 -22 -22
-20 -4 4 29 44 36 44 2 0 -4 -11 -14 -24z m-3648 -26 c-3 -5 -12 -10 -18 -10
-7 0 -6 4 3 10 19 12 23 12 15 0z m-35 -15 c0 -2 -18 -14 -40 -25 -22 -11 -40
-18 -40 -15 0 2 17 13 38 24 42 23 42 23 42 16z m633 -40 c-9 -19 -18 -33 -21
-31 -4 5 26 66 33 66 3 0 -3 -16 -12 -35z m5214 19 c-3 -3 -12 -4 -19 -1 -8 3
-5 6 6 6 11 1 17 -2 13 -5z m-2257 -34 c0 -5 -2 -10 -4 -10 -3 0 -8 5 -11 10
-3 6 -1 10 4 10 6 0 11 -4 11 -10z m57 -22 c-3 -8 -6 -5 -6 6 -1 11 2 17 5 13
3 -3 4 -12 1 -19z m2223 12 c13 -9 13 -10 0 -10 -8 0 -22 5 -30 10 -13 9 -13
10 0 10 8 0 22 -5 30 -10z m-233 -16 c-3 -3 -12 -4 -19 -1 -8 3 -5 6 6 6 11 1
17 -2 13 -5z m-4576 -31 c-12 -20 -14 -14 -5 12 4 9 9 14 11 11 3 -2 0 -13 -6
-23z m624 -3 c-9 -16 -18 -30 -21 -30 -2 0 2 14 11 30 9 17 18 30 21 30 2 0
-2 -13 -11 -30z m3910 20 c-3 -5 -12 -10 -18 -10 -7 0 -6 4 3 10 19 12 23 12
15 0z m-5015 -30 c-17 -32 -29 -32 -17 -1 6 17 15 28 19 25 4 -3 4 -14 -2 -24z
m3889 4 c2 -2 -16 -4 -42 -4 -25 0 -48 4 -51 9 -5 8 84 3 93 -5z m-88 -56 c16
-29 2 -21 -22 15 -17 23 -18 28 -6 18 10 -8 23 -23 28 -33z m-4641 18 c0 -2
-8 -10 -17 -17 -16 -13 -17 -12 -4 4 13 16 21 21 21 13z m4833 -3 c-7 -2 -19
-2 -25 0 -7 3 -2 5 12 5 14 0 19 -2 13 -5z m255 -10 c-10 -2 -28 -2 -40 0 -13
2 -5 4 17 4 22 1 32 -1 23 -4z m-4368 -13 c-8 -5 -28 -9 -45 -9 l-30 1 30 8
c17 4 37 8 45 9 13 1 13 0 0 -9z m4463 3 c-7 -2 -19 -2 -25 0 -7 3 -2 5 12 5
14 0 19 -2 13 -5z m-5293 -74 c-41 -39 -108 -105 -148 -147 l-74 -77 59 69
c55 66 221 226 233 226 3 -1 -29 -33 -70 -71z m5353 64 c-7 -2 -19 -2 -25 0
-7 3 -2 5 12 5 14 0 19 -2 13 -5z m1208 -30 c13 -16 12 -17 -3 -4 -10 7 -18
15 -18 17 0 8 8 3 21 -13z m-4564 -45 c-3 -8 -6 -5 -6 6 -1 11 2 17 5 13 3 -3
4 -12 1 -19z m568 -27 c-14 -13 -16 -13 -11 -1 3 8 9 24 13 35 7 19 7 19 11 1
2 -10 -4 -26 -13 -35z m438 6 c3 -22 2 -35 -4 -32 -5 4 -9 22 -9 42 0 45 5 40
13 -10z m-2413 12 c-7 -11 -14 -18 -17 -15 -3 3 0 12 7 21 18 21 23 19 10 -6z
m6041 -6 c13 -16 12 -17 -3 -4 -17 13 -22 21 -14 21 2 0 10 -8 17 -17z m-6101
-12 c0 -6 -11 -23 -25 -38 l-26 -28 23 37 c25 40 28 43 28 29z m3436 -17 c-4
-9 -9 -15 -11 -12 -3 3 -3 13 1 22 4 9 9 15 11 12 3 -3 3 -13 -1 -22z m-1979
-81 c-2 -16 -4 -3 -4 27 0 30 2 43 4 28 2 -16 2 -40 0 -55z m990 15 c-3 -8 -6
-5 -6 6 -1 11 2 17 5 13 3 -3 4 -12 1 -19z m2915 -113 c12 -22 14 -24 -67 65
l-59 65 58 -55 c31 -30 62 -64 68 -75z m-1992 102 c0 -1 -24 -25 -52 -52 l-53
-50 50 53 c46 48 55 57 55 49z m460 -68 c0 -6 -4 -7 -10 -4 -5 3 -10 11 -10
16 0 6 5 7 10 4 6 -3 10 -11 10 -16z m1589 -18 c-6 -2 -21 6 -33 19 l-21 21
32 -18 c18 -10 28 -20 22 -22z m791 29 c0 -5 -10 -10 -22 -9 -22 0 -22 1 -3 9
11 5 21 9 23 9 1 1 2 -3 2 -9z m-277 -27 c-13 -2 -35 -2 -50 0 -16 2 -5 4 22
4 28 0 40 -2 28 -4z m337 -33 c18 -12 2 -12 -25 0 -13 6 -15 9 -5 9 8 0 22 -4
30 -9z m-830 -14 c0 -3 -4 -8 -10 -11 -5 -3 -10 -1 -10 4 0 6 5 11 10 11 6 0
10 -2 10 -4z m-3700 -10 c0 -3 -15 -14 -32 -26 l-33 -22 30 26 c31 27 35 29
35 22z m-2085 -36 c-3 -5 -12 -10 -18 -10 -7 0 -6 4 3 10 19 12 23 12 15 0z
m6820 -63 c57 -43 123 -107 147 -142 12 -16 0 -7 -25 21 -25 28 -81 77 -124
110 -43 32 -82 63 -88 68 -16 15 45 -24 90 -57z m-4805 50 c0 -6 -119 -97
-127 -97 -6 0 118 100 125 100 1 0 2 -2 2 -3z m817 -84 c-3 -10 -5 -2 -5 17 0
19 2 27 5 18 2 -10 2 -26 0 -35z m3346 -22 c13 -14 1 -8 -28 14 -63 47 -69 53
-27 29 18 -10 43 -30 55 -43z m-6343 32 c-14 -9 -39 -28 -55 -42 -17 -14 -12
-7 11 17 24 23 49 42 56 42 7 0 1 -7 -12 -17z m3660 14 c0 -1 -41 -43 -92 -92
-51 -50 -82 -76 -69 -60 22 27 152 155 159 155 1 0 2 -1 2 -3z m-1678 -49 c-7
-7 -12 -8 -12 -2 0 14 12 26 19 19 2 -3 -1 -11 -7 -17z m3965 0 c-3 -8 -6 -5
-6 6 -1 11 2 17 5 13 3 -3 4 -12 1 -19z m-3964 -57 c-33 -32 -75 -79 -92 -105
-29 -42 -41 -54 -41 -41 0 11 96 124 138 162 68 62 65 53 -5 -16z m3092 -2
c11 -12 -1 -5 -27 16 -27 22 -48 41 -48 43 0 7 56 -36 75 -59z m1360 11 c3 -5
1 -10 -4 -10 -6 0 -11 5 -11 10 0 6 2 10 4 10 3 0 8 -4 11 -10z m-818 -102
c-2 -13 -4 -5 -4 17 -1 22 1 32 4 23 2 -10 2 -28 0 -40z m-1560 20 c-3 -8 -6
-5 -6 6 -1 11 2 17 5 13 3 -3 4 -12 1 -19z m2403 18 c0 -3 -4 -8 -10 -11 -5
-3 -10 -1 -10 4 0 6 5 11 10 11 6 0 10 -2 10 -4z m-2490 -30 c0 -2 -13 -9 -30
-15 -35 -12 -41 -5 -7 9 25 10 37 12 37 6z m327 -18 c-3 -8 -6 -5 -6 6 -1 11
2 17 5 13 3 -3 4 -12 1 -19z m2094 -15 c-10 -20 -47 -55 -71 -68 -8 -5 5 12
30 37 51 52 54 55 41 31z m803 1 c3 -8 2 -12 -4 -9 -6 3 -10 10 -10 16 0 14 7
11 14 -7z m-3094 -78 c0 -5 -1 -7 -3 -5 -2 2 -15 22 -31 44 l-27 40 30 -35
c17 -19 31 -39 31 -44z m23 54 c3 -11 1 -18 -4 -14 -5 3 -9 12 -9 20 0 20 7
17 13 -6z m184 -12 c-3 -8 -6 -5 -6 6 -1 11 2 17 5 13 3 -3 4 -12 1 -19z
m1320 -10 c-3 -7 -5 -2 -5 12 0 14 2 19 5 13 2 -7 2 -19 0 -25z m1053 -38 c19
-17 7 -10 -27 16 -35 26 -63 49 -63 51 0 6 50 -31 90 -67z m540 25 c0 -5 -5
-3 -10 5 -5 8 -10 20 -10 25 0 6 5 3 10 -5 5 -8 10 -19 10 -25z m20 -50 c0 -5
-5 -3 -10 5 -5 8 -10 20 -10 25 0 6 5 3 10 -5 5 -8 10 -19 10 -25z m-1623 -17
c-3 -7 -5 -2 -5 12 0 14 2 19 5 13 2 -7 2 -19 0 -25z m-410 0 c-3 -8 -6 -5 -6
6 -1 11 2 17 5 13 3 -3 4 -12 1 -19z m1648 -51 c6 -5 -4 -2 -20 6 -17 8 -39
25 -50 38 -16 19 -13 18 20 -6 22 -16 45 -33 50 -38z m-615 20 c0 -2 -10 -12
-22 -23 l-23 -19 19 23 c18 21 26 27 26 19z m-4756 -22 c-4 -8 -11 -15 -16
-15 -6 0 -5 6 2 15 7 8 14 15 16 15 2 0 1 -7 -2 -15z m292 -5 c0 -11 -4 -20
-8 -20 -10 0 -11 24 -1 33 9 9 9 10 9 -13z m637 -35 c-3 -9 -8 -14 -10 -11 -3
3 -2 9 2 15 9 16 15 13 8 -4z m1035 -10 c-3 -3 -9 2 -12 12 -6 14 -5 15 5 6 7
-7 10 -15 7 -18z m2737 -5 c-9 -16 -18 -30 -21 -30 -2 0 2 14 11 30 9 17 18
30 21 30 2 0 -2 -13 -11 -30z m-4464 -11 c5 -11 7 -19 4 -19 -6 0 -45 38 -45
45 0 11 31 -9 41 -26z m1749 -19 c6 -11 8 -20 6 -20 -3 0 -10 9 -16 20 -6 11
-8 20 -6 20 3 0 10 -9 16 -20z m-2111 7 c-2 -2 -22 -15 -44 -31 l-40 -27 35
30 c19 17 39 31 44 31 5 0 7 -1 5 -3z m-299 -52 c-24 -25 -46 -45 -49 -45 -3
0 15 20 39 45 24 25 46 45 49 45 3 0 -15 -20 -39 -45z m3270 35 c0 -5 -5 -10
-11 -10 -5 0 -7 5 -4 10 3 6 8 10 11 10 2 0 4 -4 4 -10z m2671 -37 c13 -16 12
-17 -3 -4 -10 7 -18 15 -18 17 0 8 8 3 21 -13z m-7788 -8 c-3 -9 -8 -14 -10
-11 -3 3 -2 9 2 15 9 16 15 13 8 -4z m2523 -17 l29 -33 -32 29 c-31 28 -38 36
-30 36 2 0 16 -15 33 -32z m5583 -8 c0 -10 -3 -8 -9 5 -12 27 -12 43 0 25 5
-8 9 -22 9 -30z m-5159 -2 c10 -6 7 -7 -10 -2 -14 3 -32 11 -40 16 -10 6 -7 7
10 2 14 -3 32 -11 40 -16z m641 -5 c-12 -20 -14 -14 -5 12 4 9 9 14 11 11 3
-2 0 -13 -6 -23z m4279 -47 c0 -5 -13 8 -30 29 -16 21 -30 41 -30 44 1 9 59
-63 60 -73z m-6110 14 c-19 -17 -38 -30 -44 -30 -9 0 64 58 74 59 3 0 -11 -13
-30 -29z m1258 11 c39 -20 83 -61 65 -61 -6 0 -13 7 -16 15 -4 8 -28 25 -54
39 -26 14 -44 25 -40 26 4 0 24 -9 45 -19z m559 -23 c-3 -8 -6 -5 -6 6 -1 11
2 17 5 13 3 -3 4 -12 1 -19z m-2717 -28 c-6 -11 -18 -20 -26 -20 -12 0 -10 5
7 20 30 25 32 25 19 0z m6057 -77 c-2 -21 -4 -6 -4 32 0 39 2 55 4 38 2 -18 2
-50 0 -70z m-6966 60 c-12 -20 -14 -14 -5 12 4 9 9 14 11 11 3 -2 0 -13 -6
-23z m2076 -50 c-2 -16 -4 -3 -4 27 0 30 2 43 4 28 2 -16 2 -40 0 -55z m1540
40 c-3 -10 -5 -4 -5 12 0 17 2 24 5 18 2 -7 2 -21 0 -30z m-936 -44 c16 -34
29 -63 27 -65 -2 -2 -18 26 -36 61 -17 36 -30 65 -27 65 3 0 19 -27 36 -61z
m-931 27 c0 -2 -7 -7 -16 -10 -8 -3 -12 -2 -9 4 6 10 25 14 25 6z m-872 -23
c-10 -2 -28 -2 -40 0 -13 2 -5 4 17 4 22 1 32 -1 23 -4z m832 5 c0 -2 -21 -23
-47 -48 -32 -31 -41 -37 -28 -17 17 27 75 77 75 65z m6685 -28 c10 -11 16 -20
13 -20 -3 0 -13 9 -23 20 -10 11 -16 20 -13 20 3 0 13 -9 23 -20z m-8130 -8
c-6 -4 -24 -18 -40 -32 -29 -24 -29 -23 2 8 18 17 36 32 40 32 4 0 3 -3 -2 -8z
m431 -5 c-11 -7 -40 -30 -65 -52 -25 -23 -38 -30 -29 -17 18 26 88 82 103 81
6 0 1 -6 -9 -12z m1708 -22 c-9 -14 -18 -25 -21 -25 -5 0 5 18 20 38 17 22 18
13 1 -13z m4573 -27 c-3 -8 -6 -5 -6 6 -1 11 2 17 5 13 3 -3 4 -12 1 -19z
m1478 -8 c10 -11 16 -20 13 -20 -3 0 -13 9 -23 20 -10 11 -16 20 -13 20 3 0
13 -9 23 -20z m-476 -84 c1 -55 -5 -42 -12 24 -3 34 -2 47 3 35 5 -11 9 -38 9
-59z m-5942 -23 c-2 -16 -4 -3 -4 27 0 30 2 43 4 28 2 -16 2 -40 0 -55z m3728
67 c3 -5 1 -10 -4 -10 -6 0 -11 5 -11 10 0 6 2 10 4 10 3 0 8 -4 11 -10z
m2768 -70 c31 -52 11 -32 -27 28 -20 31 -27 45 -14 30 13 -15 32 -41 41 -58z
m-3643 58 c0 -16 -80 -89 -121 -111 -33 -17 -33 -17 -9 0 49 35 110 96 110
109 0 8 5 14 10 14 6 0 10 -5 10 -12z m-2533 -95 c-3 -10 -5 -4 -5 12 0 17 2
24 5 18 2 -7 2 -21 0 -30z m3033 23 c0 -2 -9 -6 -20 -9 -11 -3 -18 -1 -14 4 5
9 34 13 34 5z m2880 -62 c17 -19 10 -15 -20 10 -61 53 -71 63 -35 39 17 -12
41 -34 55 -49z m-6728 -39 c11 -21 8 -18 -32 30 -24 29 -24 29 -2 10 13 -11
28 -29 34 -40z m7043 24 c9 -17 15 -33 13 -35 -3 -2 -12 12 -21 31 -21 43 -13
47 8 4z m-645 -2 c0 -2 -19 -21 -42 -42 l-43 -40 40 43 c36 39 45 47 45 39z
m-5573 -49 c-3 -7 -5 -2 -5 12 0 14 2 19 5 13 2 -7 2 -19 0 -25z m4641 -38 c0
-9 -3 -7 -8 5 -5 11 -8 29 -8 40 0 16 2 15 8 -5 4 -14 8 -32 8 -40z m1312 40
c6 -11 8 -20 6 -20 -3 0 -10 9 -16 20 -6 11 -8 20 -6 20 3 0 10 -9 16 -20z
m-6350 -6 c-8 -8 -23 -20 -34 -25 -13 -7 -9 -1 9 15 34 29 43 33 25 10z m6650
-29 c0 -5 -5 -3 -10 5 -5 8 -10 20 -10 25 0 6 5 3 10 -5 5 -8 10 -19 10 -25z
m-7515 -15 c10 -11 16 -20 13 -20 -3 0 -13 9 -23 20 -10 11 -16 20 -13 20 3 0
13 -9 23 -20z m4162 -47 c-3 -10 -5 -4 -5 12 0 17 2 24 5 18 2 -7 2 -21 0 -30z
m2504 7 c-13 -11 -28 -20 -35 -20 -6 0 3 9 19 19 39 25 46 25 16 1z m-3892
-56 c-13 -14 -51 -49 -84 -76 -47 -39 -42 -33 20 26 80 76 110 99 64 50z
m-3499 -14 c-10 -19 -30 -28 -30 -14 0 6 30 33 38 34 1 0 -2 -9 -8 -20z m800
-25 c0 -5 -5 -3 -10 5 -5 8 -10 20 -10 25 0 6 5 3 10 -5 5 -8 10 -19 10 -25z
m2240 2 c0 -7 -122 -98 -126 -95 -2 3 24 25 59 51 63 47 67 50 67 44z m3171
-130 l-24 -22 19 27 c10 14 21 24 23 22 3 -3 -6 -15 -18 -27z m846 -16 c-37
-41 -52 -86 -42 -123 5 -21 5 -21 -5 -5 -19 29 -2 84 37 128 19 21 38 39 40
39 3 0 -10 -17 -30 -39z m-2210 -3 c-3 -8 -6 -5 -6 6 -1 11 2 17 5 13 3 -3 4
-12 1 -19z m1810 -25 c-3 -10 -5 -2 -5 17 0 19 2 27 5 18 2 -10 2 -26 0 -35z
m-5947 -147 c24 -17 24 -17 -5 0 -39 22 -72 52 -98 89 -12 17 1 8 29 -21 27
-27 60 -58 74 -68z m193 89 c-3 -9 -8 -14 -10 -11 -3 3 -2 9 2 15 9 16 15 13
8 -4z m2347 2 c0 -2 -19 -21 -42 -42 l-43 -40 40 43 c36 39 45 47 45 39z
m-2363 -49 c-3 -8 -6 -5 -6 6 -1 11 2 17 5 13 3 -3 4 -12 1 -19z m4343 -24 c0
-2 -9 0 -20 6 -11 6 -20 13 -20 16 0 2 9 0 20 -6 11 -6 20 -13 20 -16z m-2620
3 c0 -2 -10 -12 -22 -23 l-23 -19 19 23 c18 21 26 27 26 19z m5717 -44 c-3
-10 -5 -2 -5 17 0 19 2 27 5 18 2 -10 2 -26 0 -35z m-5737 -40 c-30 -32 -56
-60 -58 -63 -3 -3 1 6 8 20 10 21 87 99 99 100 2 0 -20 -26 -49 -57z m-45 27
c-10 -11 -23 -20 -29 -20 -6 0 0 9 14 20 32 25 38 25 15 0z m-1635 -15 c14
-19 14 -19 -2 -6 -10 7 -18 18 -18 24 0 6 1 8 3 6 1 -2 9 -13 17 -24z m1080
11 c0 -2 -8 -10 -17 -17 -16 -13 -17 -12 -4 4 13 16 21 21 21 13z m3486 -53
c-5 -5 -74 26 -81 37 -4 6 14 0 39 -12 25 -12 44 -23 42 -25z m2537 30 c-7 -2
-19 -2 -25 0 -7 3 -2 5 12 5 14 0 19 -2 13 -5z m44 -9 c-3 -3 -12 -4 -19 -1
-8 3 -5 6 6 6 11 1 17 -2 13 -5z m-7182 -14 c3 -6 -1 -7 -9 -4 -18 7 -21 14
-7 14 6 0 13 -4 16 -10z m1625 -8 c0 -4 -18 -6 -40 -4 -22 2 -40 6 -40 8 0 2
18 4 40 4 22 0 40 -3 40 -8z m2040 5 c0 -2 -12 -14 -27 -28 l-28 -24 24 28
c23 25 31 32 31 24z m-3461 -73 c31 -13 51 -23 44 -24 -18 0 -115 45 -138 65
-18 16 -17 16 9 0 16 -10 55 -28 85 -41z m6455 31 c-4 -8 -11 -15 -16 -15 -6
0 -5 6 2 15 7 8 14 15 16 15 2 0 1 -7 -2 -15z m-5528 -56 c15 -26 -6 -15 -37
18 l-34 36 32 -22 c18 -12 35 -27 39 -32z m2434 6 c-24 -25 -46 -45 -49 -45
-3 0 15 20 39 45 24 25 46 45 49 45 3 0 -15 -20 -39 -45z m3739 -24 c-1 -24
-2 -24 -8 5 -4 17 -11 37 -15 45 -4 8 0 5 8 -5 9 -11 16 -31 15 -45z m-8154
30 c-3 -6 -11 -11 -17 -11 -6 0 -6 6 2 15 14 17 26 13 15 -4z m7388 -18 c-7
-2 -19 -2 -25 0 -7 3 -2 5 12 5 14 0 19 -2 13 -5z m922 -161 c-4 -57 -9 -101
-12 -98 -3 3 -2 60 3 128 4 68 10 112 12 98 2 -14 1 -71 -3 -128z m-5338 71
c-3 -10 -5 -2 -5 17 0 19 2 27 5 18 2 -10 2 -26 0 -35z m-977 20 c0 -5 -17
-18 -38 -31 l-37 -23 35 30 c38 33 40 34 40 24z m1803 0 c-7 -2 -19 -2 -25 0
-7 3 -2 5 12 5 14 0 19 -2 13 -5z m-1733 -7 c0 -7 -102 -78 -106 -73 -2 2 19
20 48 40 57 38 58 39 58 33z m2210 -11 c-7 -9 -27 -25 -44 -37 l-31 -21 34 36
c34 36 67 53 41 22z m-4000 -134 c8 -8 -3 -1 -25 16 -22 17 -60 53 -85 79 -34
37 -29 34 25 -16 39 -35 77 -70 85 -79z m3735 111 c-3 -3 -11 0 -18 7 -9 10
-8 11 6 5 10 -3 15 -9 12 -12z m-4272 -17 c-7 -21 -13 -19 -13 6 0 11 4 18 10
14 5 -3 7 -12 3 -20z m3256 -30 c0 -5 -4 -3 -9 5 -5 8 -9 22 -9 30 0 16 17
-16 18 -35z m-3232 -62 c-3 -10 -5 -4 -5 12 0 17 2 24 5 18 2 -7 2 -21 0 -30z
m3658 28 c-6 -5 -21 -11 -35 -15 -21 -5 -20 -3 5 9 35 17 42 18 30 6z m-1550
-77 c-50 -76 -69 -97 -35 -39 25 44 69 105 75 105 1 0 -16 -30 -40 -66z m-41
23 c-3 -8 -12 -14 -21 -14 -13 0 -13 2 3 14 10 7 19 13 21 13 1 0 0 -6 -3 -13z
m-2094 -67 c0 -16 -4 -30 -8 -30 -5 0 -7 14 -4 30 2 17 6 30 8 30 2 0 4 -13 4
-30z m2690 -15 c0 -5 -5 -3 -10 5 -5 8 -10 20 -10 25 0 6 5 3 10 -5 5 -8 10
-19 10 -25z m-2735 5 c10 -11 13 -20 7 -20 -6 0 -16 9 -22 20 -6 11 -9 20 -7
20 2 0 12 -9 22 -20z m3372 -27 c-3 -10 -5 -4 -5 12 0 17 2 24 5 18 2 -7 2
-21 0 -30z m40 -90 c-2 -21 -4 -4 -4 37 0 41 2 58 4 38 2 -21 2 -55 0 -75z
m3363 104 c0 -2 -12 -14 -27 -28 l-28 -24 24 28 c23 25 31 32 31 24z m-4679
-78 c-12 -19 -21 -30 -21 -26 0 12 33 67 38 63 1 -2 -6 -19 -17 -37z m-2061
21 c0 -5 -2 -10 -4 -10 -3 0 -8 5 -11 10 -3 6 -1 10 4 10 6 0 11 -4 11 -10z
m8120 -10 c-6 -11 -13 -20 -16 -20 -2 0 0 9 6 20 6 11 13 20 16 20 2 0 0 -9
-6 -20z m-1069 -23 c-10 -9 -11 -8 -5 6 3 10 9 15 12 12 3 -3 0 -11 -7 -18z
m-4260 -14 c13 -16 12 -17 -3 -4 -10 7 -18 15 -18 17 0 8 8 3 21 -13z m2249
14 c0 -2 -15 -16 -32 -33 l-33 -29 29 33 c28 30 36 37 36 29z m985 -36 c-21
-43 -29 -39 -8 4 9 19 18 33 21 31 2 -2 -4 -18 -13 -35z m-3145 -47 c0 -3 -13
4 -30 16 -16 12 -30 24 -30 26 0 3 14 -4 30 -16 17 -12 30 -24 30 -26z m-2112
19 c-10 -2 -26 -2 -35 0 -10 3 -2 5 17 5 19 0 27 -2 18 -5z m7531 -19 c-30
-33 -98 -84 -112 -84 -6 0 9 13 34 29 24 15 55 40 68 55 14 14 27 26 29 26 3
0 -5 -12 -19 -26z m-1254 -4 c3 -5 -1 -10 -10 -10 -9 0 -13 5 -10 10 3 6 8 10
10 10 2 0 7 -4 10 -10z m582 4 c-3 -3 -12 -4 -19 -1 -8 3 -5 6 6 6 11 1 17 -2
13 -5z m-6595 -11 c-20 -4 -21 -7 -10 -20 11 -14 11 -15 -7 -5 -50 29 -51 32
-5 30 25 0 35 -3 22 -5z m1938 -38 c0 -3 -18 4 -40 15 -22 11 -40 23 -40 25 0
3 18 -4 40 -15 22 -11 40 -23 40 -25z m1955 35 c-3 -5 -12 -10 -18 -10 -7 0
-6 4 3 10 19 12 23 12 15 0z m1108 -10 c-5 -19 -23 -29 -23 -12 0 7 20 32 26
32 1 0 0 -9 -3 -20z m1494 13 c-20 -2 -52 -2 -70 0 -17 2 0 4 38 4 39 0 53 -2
32 -4z m-4938 -25 c-2 -2 -17 -14 -34 -28 l-30 -25 24 28 c14 15 29 27 34 27
6 0 8 -1 6 -2z m1784 -35 c-7 -2 -21 -2 -30 0 -10 3 -4 5 12 5 17 0 24 -2 18
-5z m4123 -30 c-8 -15 -32 -46 -52 -68 l-36 -40 29 40 c17 22 38 54 48 72 23
39 33 36 11 -4z m-3848 20 c-26 -2 -71 -2 -100 0 -29 2 -8 3 47 3 55 0 79 -1
53 -3z m-3911 -40 c-3 -10 -5 -4 -5 12 0 17 2 24 5 18 2 -7 2 -21 0 -30z
m4900 -9 c-3 -3 -12 -4 -19 -1 -8 3 -5 6 6 6 11 1 17 -2 13 -5z m-5167 -34
c18 -12 2 -12 -25 0 -13 6 -15 9 -5 9 8 0 22 -4 30 -9z m1457 -30 c-6 -16 -15
-30 -19 -30 -12 0 -10 8 8 35 22 33 25 31 11 -5z m463 15 c0 -2 -13 -11 -30
-20 -38 -19 -40 -11 -2 9 31 17 32 18 32 11z m-1680 -25 c-6 -11 -18 -20 -26
-20 -12 0 -10 5 7 20 30 25 32 25 19 0z m46 -37 c-11 -11 -19 6 -11 24 8 17 8
17 12 0 3 -10 2 -21 -1 -24z m-91 -13 l20 -9 -20 1 c-11 0 -31 4 -45 8 l-25 8
25 0 c14 0 34 -3 45 -8z m7205 -34 c0 -2 -8 -10 -17 -17 -16 -13 -17 -12 -4 4
13 16 21 21 21 13z m-7435 -16 c3 -5 1 -10 -4 -10 -6 0 -11 5 -11 10 0 6 2 10
4 10 3 0 8 -4 11 -10z m3814 -7 c-19 -22 -90 -73 -102 -73 -6 0 9 13 34 28 24
16 50 36 58 45 7 9 16 17 18 17 3 0 -1 -8 -8 -17z m-3196 0 c-13 -2 -33 -2
-45 0 -13 2 -3 4 22 4 25 0 35 -2 23 -4z m762 -63 c-10 -11 -30 -20 -44 -19
-24 1 -24 1 6 10 18 5 35 14 38 19 3 6 9 10 12 10 3 0 -2 -9 -12 -20z m-300 0
c4 -7 -3 -8 -22 -4 -38 9 -42 14 -10 14 14 0 29 -5 32 -10z m6148 3 c-7 -2
-21 -2 -30 0 -10 3 -4 5 12 5 17 0 24 -2 18 -5z m-194 -27 c-2 -2 -125 -9
-274 -15 -616 -26 -982 -41 -1010 -40 -79 2 56 18 285 33 135 9 265 18 290 19
68 5 714 8 709 3z m268 -3 c-4 -3 -1 -13 6 -21 10 -13 9 -14 -10 -4 -32 17
-37 32 -12 32 12 0 19 -3 16 -7z m-3777 -19 c0 -2 -7 -4 -15 -4 -8 0 -15 4
-15 10 0 5 7 7 15 4 8 -4 15 -8 15 -10z m3650 10 c0 -23 -195 -139 -331 -197
-128 -55 -356 -132 -447 -152 -95 -20 -193 -33 -297 -39 l-90 -5 115 14 c313
40 483 92 788 240 174 85 212 107 212 124 0 16 6 21 25 21 14 0 25 -3 25 -6z
m-5910 -8 c0 -2 -9 -6 -20 -9 -11 -3 -20 -1 -20 4 0 5 9 9 20 9 11 0 20 -2 20
-4z m123 -21 c-3 -9 -8 -14 -10 -11 -3 3 -2 9 2 15 9 16 15 13 8 -4z m3542 3
l110 -13 -300 -6 c-337 -6 -409 -16 -532 -75 -169 -81 -192 -201 -60 -320 55
-50 171 -121 229 -141 43 -15 77 -6 117 30 14 12 7 1 -14 -25 -22 -27 -43 -48
-47 -48 -19 0 -197 95 -254 135 -87 62 -121 117 -133 219 l-8 59 61 45 c34 25
88 57 121 72 60 28 199 66 265 73 84 9 344 6 445 -5z m222 -4 c-3 -3 -12 -4
-19 -1 -8 3 -5 6 6 6 11 1 17 -2 13 -5z m40 -10 c-3 -3 -12 -4 -19 -1 -8 3 -5
6 6 6 11 1 17 -2 13 -5z m2290 -30 c-3 -3 -12 -4 -19 -1 -8 3 -5 6 6 6 11 1
17 -2 13 -5z m-4749 -28 c26 -13 67 -46 92 -72 l45 -48 -54 48 c-30 26 -75 58
-100 71 -26 13 -42 24 -38 25 4 0 29 -11 55 -24z m4685 -22 c-7 -19 -10 -18
-16 5 -3 13 -1 18 9 14 7 -2 10 -11 7 -19z m-5982 -11 c13 -16 12 -17 -3 -4
-10 7 -18 15 -18 17 0 8 8 3 21 -13z m1439 -21 c0 -12 -3 -12 -15 -2 -8 7 -15
13 -15 15 0 1 7 2 15 2 8 0 15 -7 15 -15z m-1399 -19 c13 -16 12 -17 -3 -4
-10 7 -18 15 -18 17 0 8 8 3 21 -13z m439 -48 c0 -30 -3 -35 -22 -34 -17 1
-19 2 -5 6 11 3 17 14 17 34 0 16 2 29 5 29 3 0 5 -16 5 -35z m2100 11 c0 -2
-26 -23 -57 -46 l-58 -42 50 46 c45 40 65 54 65 42z m-2277 -43 c-7 -2 -21 -2
-30 0 -10 3 -4 5 12 5 17 0 24 -2 18 -5z m1707 -77 c0 -2 -8 -10 -17 -17 -16
-13 -17 -12 -4 4 13 16 21 21 21 13z m-40 -30 c0 -2 -8 -10 -17 -17 -16 -13
-17 -12 -4 4 13 16 21 21 21 13z m1493 -63 c-18 -2 -48 -2 -65 0 -18 2 -4 4
32 4 36 0 50 -2 33 -4z m-263 -18 c0 -2 -10 -9 -22 -15 -22 -11 -22 -10 -4 4
21 17 26 19 26 11z m-970 -35 c-31 -25 -144 -93 -130 -77 7 8 154 105 160 106
3 0 -11 -13 -30 -29z m965 -18 c-6 -5 -31 -26 -56 -48 l-46 -39 49 48 c27 26
52 47 56 47 3 0 2 -4 -3 -8z m-1170 -102 c-3 -5 -12 -10 -18 -10 -7 0 -6 4 3
10 19 12 23 12 15 0z m3705 -74 c0 -2 -8 -10 -17 -17 -16 -13 -17 -12 -4 4 13
16 21 21 21 13z m-4042 -43 c-10 -2 -26 -2 -35 0 -10 3 -2 5 17 5 19 0 27 -2
18 -5z m4012 3 c0 -2 -8 -10 -17 -17 -16 -13 -17 -12 -4 4 13 16 21 21 21 13z
m-4087 -13 c-13 -2 -33 -2 -45 0 -13 2 -3 4 22 4 25 0 35 -2 23 -4z m3977
-109 c-41 -41 -97 -94 -125 -117 -27 -22 4 11 70 76 66 64 122 116 125 117 2
0 -29 -34 -70 -76z m-2345 -174 c70 -75 72 -78 17 -25 -35 33 -77 78 -94 100
-36 46 -30 41 77 -75z m2160 10 c-3 -5 -20 -19 -38 -30 -32 -22 -32 -22 3 9
37 32 45 37 35 21z m-75 -54 c0 -3 -15 -14 -32 -26 l-33 -22 30 26 c31 27 35
29 35 22z m-1600 -276 c8 -5 11 -10 5 -10 -5 0 -17 5 -25 10 -8 5 -10 10 -5
10 6 0 17 -5 25 -10z m50 -20 c8 -5 11 -10 5 -10 -5 0 -17 5 -25 10 -8 5 -10
10 -5 10 6 0 17 -5 25 -10z m910 -65 c-14 -8 -32 -14 -40 -14 -8 0 -1 6 15 14
40 18 57 18 25 0z m-232 -42 c-10 -2 -26 -2 -35 0 -10 3 -2 5 17 5 19 0 27 -2
18 -5z m-90 -10 c-16 -2 -40 -2 -55 0 -16 2 -3 4 27 4 30 0 43 -2 28 -4z"/>
<path d="M1335 5880 c-4 -6 7 -26 24 -45 17 -20 34 -48 38 -63 5 -15 8 -99 8
-187 0 -178 -10 -212 -67 -236 -34 -14 -102 -6 -153 18 -31 15 -37 15 -45 3
-12 -20 -4 -27 66 -51 106 -37 179 -14 217 69 20 43 22 62 20 209 -1 179 -9
215 -54 261 -33 34 -44 38 -54 22z"/>
<path d="M605 5531 c-71 -17 -95 -45 -95 -108 1 -49 20 -85 39 -73 12 7 13 15
2 48 -29 88 17 106 243 100 139 -4 167 -8 202 -26 46 -23 54 -37 54 -88 0 -27
4 -34 20 -34 16 0 20 7 20 38 0 47 -30 96 -72 118 -50 26 -336 43 -413 25z"/>
</g>
</svg>
